<svg viewBox="0 0 289 143" width="289px" heigt="143px" fill="none" xmlns="http://www.w3.org/2000/svg">
<path d="M122.59 38.27c0 3.78.95 7.28 2.84 10.5a22 22 0 0 0 7.74 7.65c3.27 1.89 6.8 2.83 10.58 2.83 3.9 0 7.42-.77 10.57-2.32a18.05 18.05 0 0 0 7.4-6.45 16.89 16.89 0 0 0 2.84-9.29h3.1c0 3.96-1.07 7.57-3.19 10.84a21.9 21.9 0 0 1-8.6 7.65 26.39 26.39 0 0 1-12.12 2.76 24.52 24.52 0 0 1-20.98-12.04 23.61 23.61 0 0 1-3.28-12.13v-14.1c0-4.36 1.07-8.37 3.19-12.04a24.52 24.52 0 0 1 8.77-8.86A23.61 23.61 0 0 1 143.57 0c4.42 0 8.43.95 12.04 2.84a21.67 21.67 0 0 1 8.69 7.65 19.07 19.07 0 0 1 3.18 10.75h-3.1c-.05-3.44-1-6.53-2.83-9.29a18.67 18.67 0 0 0-7.48-6.45 23.14 23.14 0 0 0-10.5-2.32c-3.78 0-7.28.95-10.49 2.84a21.3 21.3 0 0 0-7.65 7.65 20.3 20.3 0 0 0-2.84 10.5v14.1ZM1.2 31.9v29.25h22.28c4.36 0 8.37-1.1 12.04-3.27a24.52 24.52 0 0 0 8.86-8.77 23.6 23.6 0 0 0 3.26-12.13V25.46c0-4.36-1.09-8.37-3.26-12.04a24.3 24.3 0 0 0-8.86-8.86 23.15 23.15 0 0 0-12.04-3.27H1.2v27.44H23.6v3.18H1.2ZM104.42 1.29H62.28v59.86h42.14v-3.19H65.47V31.91h33.88v-3.19H65.47V4.47h38.95V1.3ZM224.86 1.29h-42.14v59.86h42.14v-3.19h-38.95V31.91h33.88v-3.19h-33.88V4.47h38.95V1.3ZM240.2 61.15V1.29h3.35l41.8 40.6V1.28h3.17v59.86h-3.18v-14.8L243.38 5.42v55.73h-3.19ZM12.04 109.33a81.1 81.1 0 0 0 11.95 3.18c4.53.91 7.92 1.75 10.15 2.5 2.3.68 4.19 1.83 5.68 3.43 1.49 1.6 2.23 3.9 2.23 6.88 0 4.36-1.74 7.8-5.24 10.32-3.44 2.53-7.8 3.79-13.07 3.79-4.25 0-7.92-.75-11.01-2.24a16.98 16.98 0 0 1-7.14-6.45 18.77 18.77 0 0 1-2.4-9.63H0c0 4.18.95 7.91 2.84 11.18a19.62 19.62 0 0 0 8.34 7.48c3.61 1.78 7.8 2.67 12.56 2.67 3.84 0 7.4-.63 10.66-1.9a17.67 17.67 0 0 0 7.83-5.67c2-2.58 3-5.74 3-9.46 0-3.73-.91-6.62-2.75-8.69a14.5 14.5 0 0 0-6.62-4.38 87.34 87.34 0 0 0-10.92-2.84c-4.64-.98-8.26-1.9-10.84-2.75a15.75 15.75 0 0 1-6.27-3.7c-1.6-1.66-2.41-3.87-2.41-6.62 0-3.04.83-5.57 2.5-7.57 1.71-2 3.92-3.5 6.61-4.47 2.7-.98 5.6-1.47 8.69-1.47 3.5 0 6.68.72 9.55 2.15a16.28 16.28 0 0 1 6.79 5.94 16.14 16.14 0 0 1 2.5 8.94h3.18c0-3.9-.98-7.37-2.93-10.4a19.5 19.5 0 0 0-8-7.06 23.6 23.6 0 0 0-11-2.58c-4.19 0-7.89.7-11.1 2.07a17.22 17.22 0 0 0-7.4 5.85 15.2 15.2 0 0 0-2.57 8.77c0 3.2.86 5.85 2.58 7.91 1.77 2 4.18 3.61 7.22 4.82Z" fill="currentColor"/>
<path fill-rule="evenodd" clip-rule="evenodd" d="M66.24 141.15h-3.18V81.29h24.08c4.01 0 7.71.86 11.1 2.58a20.18 20.18 0 0 1 8.16 7.31c2 3.15 3.01 6.8 3.01 10.92 0 3.96-1.03 7.6-3.1 10.92-2 3.33-4.75 5.88-8.25 7.66-3.04 1.55-6.68 2.32-10.92 2.32h-20.9v18.15Zm0-21.33h20.9c3.67 0 6.68-.57 9.03-1.72a17.27 17.27 0 0 0 7.3-6.45 17.34 17.34 0 0 0 2.76-9.55c0-3.44-.92-6.6-2.75-9.46a17.17 17.17 0 0 0-7.4-6.45c-2.35-1.14-5.33-1.72-8.94-1.72h-20.9v35.35ZM144.86 81.29h-3.35l-24.6 59.86h3.36l8.17-19.78h29.5l8.08 19.78h3.44l-24.6-59.86Zm11.79 36.98h-26.92l13.41-32.85 13.5 32.85Z" fill="currentColor"/>
<path d="M182.81 118.27c0 3.78.95 7.28 2.84 10.5a22 22 0 0 0 7.74 7.65c3.27 1.89 6.8 2.83 10.58 2.83 3.9 0 7.42-.77 10.57-2.32a18.05 18.05 0 0 0 7.4-6.45 16.89 16.89 0 0 0 2.84-9.29h3.1c0 3.96-1.07 7.57-3.19 10.84a21.9 21.9 0 0 1-8.6 7.65 26.39 26.39 0 0 1-12.12 2.76 24.53 24.53 0 0 1-20.98-12.04 23.62 23.62 0 0 1-3.28-12.13v-14.1c0-4.36 1.06-8.37 3.19-12.04a24.52 24.52 0 0 1 8.77-8.86A23.61 23.61 0 0 1 203.79 80c4.42 0 8.43.95 12.04 2.84a21.67 21.67 0 0 1 8.69 7.65 19.07 19.07 0 0 1 3.18 10.75h-3.1c-.05-3.44-1-6.53-2.83-9.29a18.67 18.67 0 0 0-7.48-6.45 23.14 23.14 0 0 0-10.5-2.32c-3.78 0-7.28.95-10.49 2.84a21.3 21.3 0 0 0-7.65 7.65 20.3 20.3 0 0 0-2.84 10.5v14.1ZM285.08 81.29h-42.13v59.86h42.13v-3.19h-38.95v-26.05H280v-3.19h-33.88V84.47h38.95V81.3Z" fill="currentColor"/>
</svg>