<svg width="391" height="42" viewBox="0 0 391 42" fill="none" xmlns="http://www.w3.org/2000/svg">
  <path d="M361.49 1.7h26.96v2.03h-24.93v15.52h21.69v2.04h-21.69v16.68h24.93V40H361.5V1.7ZM323 25.36c0 2.42.6 4.66 1.81 6.72a14.08 14.08 0 0 0 4.96 4.9 13.28 13.28 0 0 0 6.77 1.81c2.5 0 4.75-.5 6.77-1.48 2.02-1 3.6-2.37 4.73-4.13a10.8 10.8 0 0 0 1.82-5.95h1.98c0 2.53-.68 4.85-2.04 6.94a14.01 14.01 0 0 1-5.5 4.9 16.88 16.88 0 0 1-7.76 1.76 15.69 15.69 0 0 1-13.43-7.7 15.11 15.11 0 0 1-2.1-7.77v-9.03c0-2.78.69-5.35 2.04-7.7a15.69 15.69 0 0 1 5.62-5.67c2.38-1.4 4.97-2.1 7.76-2.1 2.82 0 5.4.61 7.7 1.82 2.35 1.18 4.2 2.81 5.56 4.9a12.2 12.2 0 0 1 2.04 6.88h-1.98a10.8 10.8 0 0 0-1.82-5.94 11.95 11.95 0 0 0-4.79-4.13 14.8 14.8 0 0 0-6.71-1.48c-2.42 0-4.66.6-6.72 1.81a13.63 13.63 0 0 0-4.9 4.9 12.99 12.99 0 0 0-1.81 6.71v9.03ZM296.57 1.7h2.14L314.46 40h-2.2l-5.18-12.66H288.2L282.97 40h-2.15l15.75-38.3Zm-7.54 23.66h17.22l-8.64-21.02-8.58 21.02ZM248.4 40h-2.04V1.7h15.4c2.58 0 4.94.54 7.1 1.65 2.21 1.1 3.95 2.66 5.24 4.67a12.73 12.73 0 0 1 1.92 7 13 13 0 0 1-1.98 6.98 12.84 12.84 0 0 1-5.28 4.9c-1.95 1-4.28 1.49-7 1.49H248.4V40Zm0-13.65h13.37c2.35 0 4.27-.36 5.78-1.1 1.94-.92 3.5-2.3 4.68-4.13a11.1 11.1 0 0 0 1.76-6.1 11 11 0 0 0-1.76-6.06 10.99 10.99 0 0 0-4.74-4.13c-1.5-.73-3.41-1.1-5.72-1.1h-13.38v22.62ZM221.36 21.67a51.87 51.87 0 0 1-7.65-2.03 11.9 11.9 0 0 1-4.63-3.08 7.64 7.64 0 0 1-1.65-5.07c0-2.13.55-4 1.65-5.61a11.03 11.03 0 0 1 4.74-3.75 17.89 17.89 0 0 1 7.1-1.32c2.56 0 4.91.55 7.04 1.65a12.07 12.07 0 0 1 6.99 11.17h-2.04c0-2.16-.53-4.06-1.6-5.72a10.42 10.42 0 0 0-4.34-3.8 13.47 13.47 0 0 0-6.1-1.37c-2 0-3.84.31-5.57.94a9.88 9.88 0 0 0-4.24 2.86 7.34 7.34 0 0 0-1.6 4.84c0 1.76.52 3.18 1.55 4.24a10.07 10.07 0 0 0 4.02 2.37c1.65.55 3.96 1.13 6.93 1.76 3.01.62 5.34 1.23 7 1.81a9.28 9.28 0 0 1 4.23 2.81c1.17 1.32 1.76 3.17 1.76 5.56 0 2.38-.64 4.4-1.92 6.05a11.32 11.32 0 0 1-5.01 3.64 18.8 18.8 0 0 1-6.83 1.2c-3.04 0-5.72-.56-8.03-1.7a12.57 12.57 0 0 1-5.34-4.79 14.02 14.02 0 0 1-1.82-7.15h2.04a12 12 0 0 0 1.54 6.16 10.86 10.86 0 0 0 4.57 4.13 16.1 16.1 0 0 0 7.04 1.43c3.38 0 6.17-.8 8.37-2.42a7.72 7.72 0 0 0 3.35-6.6c0-1.91-.47-3.38-1.43-4.4a7.97 7.97 0 0 0-3.63-2.21c-1.43-.48-3.6-1-6.5-1.6ZM154.56 40V1.7h2.14l26.75 25.97V1.7h2.04V40h-2.04v-9.47L156.6 4.33V40h-2.03ZM117.78 1.7h26.97v2.03H119.8v15.52h21.69v2.04h-21.69v16.67h24.94V40h-26.97V1.7ZM79.3 25.36c0 2.42.6 4.66 1.8 6.71a14.07 14.07 0 0 0 4.96 4.9 13.28 13.28 0 0 0 6.77 1.82c2.5 0 4.75-.5 6.77-1.49 2.02-.99 3.6-2.36 4.73-4.12a10.82 10.82 0 0 0 1.82-5.95h1.98c0 2.53-.68 4.84-2.03 6.94a14 14 0 0 1-5.5 4.9 16.89 16.89 0 0 1-7.77 1.76 15.69 15.69 0 0 1-13.43-7.7 15.1 15.1 0 0 1-2.09-7.77v-9.03c0-2.79.68-5.35 2.04-7.7a15.69 15.69 0 0 1 5.61-5.67c2.39-1.4 4.97-2.1 7.76-2.1 2.83 0 5.4.61 7.7 1.82 2.36 1.18 4.2 2.81 5.57 4.9a12.2 12.2 0 0 1 2.03 6.88h-1.98a10.8 10.8 0 0 0-1.82-5.94 11.95 11.95 0 0 0-4.78-4.13 14.8 14.8 0 0 0-6.72-1.49 13 13 0 0 0-6.71 1.82 13.63 13.63 0 0 0-4.9 4.9 13 13 0 0 0-1.82 6.71v9.03ZM40.7 1.7h26.97v2.03H42.73v15.52h21.69v2.04H42.73v16.67h24.94V40H40.7V1.7ZM15.86 1.7a15.56 15.56 0 0 1 13.38 7.76c1.39 2.34 2.09 4.91 2.09 7.7v7.37c0 2.8-.7 5.38-2.1 7.76a15.69 15.69 0 0 1-5.66 5.62 14.82 14.82 0 0 1-7.71 2.1H1.6V21.43h13.88V19.2H1.6V1.7h14.26Z" fill="currentColor"/>
</svg>
